<?xml version="1.0"?>
<svg width="300" height="300" xmlns="http://www.w3.org/2000/svg" xmlns:svg="http://www.w3.org/2000/svg">
 <!-- Created with SVG-edit - https://github.com/SVG-Edit/svgedit-->

 <g class="layer">
  <title>Layer 1</title>
  <path d="m147.4,210.2c-1.22,0.88 -2.1,1 -3,1c-0.76,0 -1.65,0.01 -2.52,0c-0.96,-0.01 -1.72,-0.49 -2.65,-0.83c-0.63,-0.23 -1.7,0.02 -2.53,-0.22c-0.86,-0.26 -1.53,-0.94 -2.4,-0.94c-0.9,0 -1.71,0.15 -2.61,0c-0.89,-0.14 -1.63,-0.65 -2.53,-0.95c-0.85,-0.28 -1.43,-0.83 -2.33,-1.34c-0.59,-0.33 -1.54,-0.67 -2.53,-0.72c-0.9,-0.04 -1.66,0.04 -2.55,0c-0.87,-0.04 -1.56,-0.68 -2.41,-0.98c-0.75,-0.27 -1.77,0.02 -2.63,-0.01c-0.95,-0.03 -1.29,-0.92 -2.01,-1c-0.8,-0.09 -1.87,0.07 -2.49,-0.57c-0.49,-0.51 -1.12,-1.29 -1.97,-1.6c-0.83,-0.3 -1.69,-0.63 -2.44,-0.87c-0.84,-0.27 -1.49,-1.06 -2.09,-1.66c-0.6,-0.6 -1.23,-1.38 -1.86,-1.86c-0.7,-0.54 -1.67,-0.33 -2.55,-0.72c-0.74,-0.32 -1.33,-0.95 -1.97,-1.43c-0.77,-0.57 -1.75,-0.07 -2.62,-0.34c-0.87,-0.27 -1,-1.49 -1.66,-1.89c-0.81,-0.48 -1.77,-0.25 -2.34,-0.76c-0.73,-0.66 -0.98,-1.68 -1.59,-2.21c-0.65,-0.58 -1.67,-0.55 -2.36,-1.14c-0.66,-0.57 -0.85,-1.48 -1.56,-2.15c-0.58,-0.54 -1.58,-0.8 -1.8,-1.6c-0.24,-0.88 -0.95,-1.11 -1.57,-1.81c-0.59,-0.67 -0.6,-1.75 -1.44,-2.22c-0.64,-0.36 -1.53,-0.66 -2.2,-1.37c-0.54,-0.58 -0.66,-1.52 -1.3,-2.28c-0.55,-0.65 -1.53,-0.84 -2,-1.54c-0.53,-0.79 -1.15,-1.38 -1.41,-2.18c-0.3,-0.92 -0.33,-1.76 -0.73,-2.5c-0.41,-0.76 -0.35,-1.69 -0.35,-2.66c0,-0.84 0,-1.74 0,-2.64c0,-0.88 0,-1.7 0,-2.64c0,-0.85 0,-1.65 0,-2.72c0,-0.84 0.28,-1.71 0.65,-2.34c0.5,-0.86 0.93,-1.5 1.7,-2c0.76,-0.5 1.32,-1.12 1.67,-1.9c0.36,-0.81 0.81,-1.62 1.14,-2.4c0.33,-0.78 0.65,-1.61 1.19,-2.3c0.58,-0.74 1.77,-0.75 2.21,-1.35c0.54,-0.73 0.28,-1.8 0.79,-2.59c0.48,-0.73 1.54,-0.75 2,-1.47c0.37,-0.58 1.17,-1.21 1.95,-1.65c0.69,-0.39 1.45,-0.86 2.17,-1.12c1.01,-0.38 1.78,-0.59 2.58,-0.88c0.94,-0.33 1.76,-0.81 2.55,-1.21c0.84,-0.42 1.65,-0.38 2.59,-0.88c0.62,-0.33 1.09,-1.25 1.96,-1.55c0.85,-0.29 1.64,0.11 2.69,-0.23c0.76,-0.25 1.57,-0.7 2.46,-1c0.69,-0.24 1.7,-0.54 2.48,-0.86c0.78,-0.32 1.5,-1.05 2.2,-1.4c0.81,-0.4 1.77,-0.53 2.49,-0.81c0.74,-0.28 1.71,-0.81 2.51,-1.21c0.6,-0.3 1.58,-0.84 2.34,-1.14c0.89,-0.35 1.83,-0.52 2.48,-0.78c1.01,-0.4 1.8,-0.55 2.66,-0.58c0.73,-0.02 1.73,-0.18 2.51,-0.52c1.02,-0.43 1.6,-0.78 2.4,-1.18c0.8,-0.4 1.6,-0.8 2.2,-1.1c1,-0.5 1.71,-0.96 2.64,-1.14c0.94,-0.18 1.86,-0.01 2.76,-0.06c0.8,-0.04 1.57,-0.66 2.41,-0.97c0.88,-0.33 1.59,-0.6 2.59,-0.86c0.77,-0.2 1.61,-0.39 2.17,-0.97c0.63,-0.65 1.32,-1.03 2.31,-1.18c0.91,-0.13 1.82,-0.02 2.72,-0.02c0.97,0 1.65,0.09 2.8,-0.17c0.61,-0.14 1.35,-0.52 2.24,-1.13c0.77,-0.52 1.52,-0.66 2.41,-0.71c0.79,-0.04 1.5,-0.91 2.24,-0.99c0.93,-0.11 1.96,0.09 2.74,-0.04c0.88,-0.15 1.57,-0.61 2.57,-0.84c0.77,-0.18 1.77,-0.36 2.39,-0.7c0.81,-0.43 1.74,-0.62 2.55,-1c0.81,-0.38 1.44,-1.08 2.27,-1.4c0.88,-0.34 1.5,-0.71 2.48,-0.97c0.79,-0.21 1.62,-0.06 2.58,-0.06c0.91,0 1.81,0 2.72,0c0.9,0 1.61,0 2.57,0c0.73,0 1.9,0 2.69,0c0.93,0 1.88,0 2.58,0c0.96,0 1.98,-0.14 2.79,0.17c0.84,0.32 1.31,1.13 1.65,1.83c0.46,0.95 0.74,1.72 1.52,2.17c0.62,0.36 0.89,1.34 1.01,2.24c0.12,0.93 0.6,1.55 0.87,2.57c0.2,0.76 0.02,1.7 0.24,2.43c0.31,1.05 0.95,1.56 1.32,2.2c0.55,0.94 0.56,1.83 0.57,2.76c0,0.95 0.16,1.81 0.43,2.47c0.4,1.01 0.56,1.78 1,2.57c0.45,0.82 0.73,1.61 1.22,2.27c0.66,0.88 1.04,1.31 1.49,2.11c0.58,1.02 0.73,1.77 0.91,2.44c0.25,0.95 0.67,1.72 1.1,2.59c0.29,0.59 0.7,1.79 0.79,2.39c0.14,0.9 0.27,2.1 0.42,2.71c0.15,0.64 0.46,1.66 0.74,2.83c0.1,0.43 0.3,1.33 0.5,2.28c0.1,0.49 0.4,1.98 0.5,2.48c0.2,0.99 0.41,1.96 0.54,2.43c0.24,0.9 0.67,2.14 1.02,2.86c0.33,0.68 0.74,1.28 1.33,2.51c0.28,0.59 0.63,1.45 0.85,2.53c0.15,0.7 0.16,1.51 0.17,2.53c0,0.94 0,1.8 0,2.64c0,0.98 0,1.8 0,2.76c0,0.89 0.11,1.71 -0.22,2.69c-0.27,0.78 -0.32,1.76 -1,2.44c-0.59,0.58 -1.48,0.82 -2.07,1.42c-0.68,0.68 -1.15,1.4 -1.69,2.09c-0.48,0.62 -1.48,0.44 -2.25,0.97c-0.81,0.55 -1.1,1.46 -1.8,1.66c-0.97,0.29 -1.55,0.69 -2.36,1.33c-0.8,0.63 -1.39,1.03 -2.2,1.45c-0.79,0.41 -1.58,0.83 -2.6,1.08c-0.79,0.19 -1.45,0.21 -2.4,0.83c-0.6,0.39 -1.36,1.16 -2.21,1.29c-0.95,0.14 -1.7,-0.05 -2.42,0.09c-1.15,0.22 -1.72,0.71 -2.78,0.86c-0.77,0.11 -1.83,0 -2.76,0.08c-0.68,0.05 -1.65,0.41 -2.45,0.83c-0.55,0.29 -1.59,0.88 -2.31,1.04c-0.96,0.2 -2.02,0.05 -2.46,0.64c-0.58,0.78 -1.16,1.22 -2,1.65c-0.66,0.34 -1.29,1.13 -1.95,1.78c-0.57,0.56 -1.36,0.92 -2.25,1.05c-0.92,0.14 -1.48,0.85 -2.32,1c-0.88,0.16 -1.8,0.23 -2.48,0.5c-0.97,0.39 -1.94,0.42 -2.56,1.11c-0.59,0.66 -1,1.34 -1.87,1.39c-0.92,0.05 -1.71,0.39 -2.45,0.72c-0.89,0.39 -1.65,0.32 -2.59,0.78c-0.84,0.41 -1.65,0.69 -2.22,1.2c-0.72,0.65 -1.39,1.25 -2.3,1.3c-0.8,0.04 -1.56,0.57 -2.22,1.22l-0.58,0.49l-0.9,0.28" fill="#0000ff" fill-opacity="null" id="svg_20" stroke="#000000" stroke-dasharray="null" stroke-linecap="null" stroke-linejoin="null" stroke-opacity="null" stroke-width="5"/>
  <path d="m106.4,267.2c-1.7,-0.06 -2.51,-0.52 -3.2,-1.2c-0.5,-0.5 -1.17,-1.23 -2,-1.72c-0.7,-0.41 -1.11,-1.27 -1.66,-1.91c-0.47,-0.54 -1.18,-1.38 -1.83,-1.81c-0.76,-0.5 -1.64,-0.78 -2.3,-1.38c-0.53,-0.48 -1.24,-1.22 -1.8,-1.78c-0.7,-0.7 -1.4,-1.4 -1.9,-1.9c-0.7,-0.71 -1.28,-1.48 -1.7,-2.11c-0.57,-0.87 -1.31,-1.2 -1.65,-1.95c-0.39,-0.86 -0.62,-1.6 -1.24,-2.48c-0.4,-0.57 -0.67,-1.52 -1.23,-2.26c-0.5,-0.66 -1.32,-1.27 -1.47,-2.1c-0.17,-0.91 -0.18,-1.75 -0.62,-2.57c-0.44,-0.83 -1.03,-1.43 -1.49,-2.15c-0.44,-0.68 -0.9,-1.68 -1.29,-2.46c-0.33,-0.65 -1.01,-1.44 -1.33,-2.11c-0.42,-0.88 -0.46,-1.94 -0.78,-2.61c-0.39,-0.82 -0.46,-1.72 -0.67,-2.5c-0.21,-0.8 -1.01,-1.46 -1.55,-2.08c-0.5,-0.59 -0.27,-1.62 -0.29,-2.52c-0.01,-0.9 -0.54,-1.74 -0.88,-2.5c-0.33,-0.74 -0.45,-1.79 -0.92,-2.33c-0.64,-0.74 -1.13,-1.45 -1.28,-2.17c-0.21,-1 -0.72,-1.63 -0.91,-2.57c-0.18,-0.86 -0.14,-1.84 -0.43,-2.62c-0.27,-0.73 -0.52,-1.73 -0.8,-2.53c-0.3,-0.87 -0.72,-1.65 -0.78,-2.48c-0.07,-0.9 0,-1.82 -0.43,-2.6c-0.45,-0.82 -0.88,-1.65 -1.22,-2.36c-0.41,-0.85 -0.27,-1.59 -0.35,-2.6c-0.09,-0.99 -0.52,-1.69 -0.8,-2.25c-0.5,-1 -0.9,-1.8 -1.3,-2.6c-0.38,-0.78 -0.81,-1.62 -0.9,-2.5c-0.09,-0.9 0,-1.8 0,-2.72c0,-0.91 0.05,-1.78 -0.43,-2.54c-0.42,-0.67 -0.57,-1.46 -0.57,-2.45c0,-0.89 0,-1.77 0,-2.64c0,-0.96 0,-1.77 0,-2.64c0,-1 0,-1.84 -0.06,-2.42c-0.12,-1.2 -0.37,-2.08 -0.52,-2.66c-0.27,-1.07 -0.4,-1.98 -0.43,-2.9c-0.03,-0.87 -0.24,-1.65 -0.57,-2.51c-0.36,-0.93 -0.26,-1.86 -0.51,-2.63c-0.26,-0.77 -0.89,-1.5 -0.91,-2.4c-0.03,-0.91 0,-1.82 0,-2.78c0,-0.72 0,-1.62 0,-2.52c0,-0.9 0,-1.8 0,-2.7c0,-0.9 0,-1.8 0,-2.6c0,-0.9 0,-1.8 0,-2.7c0,-0.9 0,-1.87 0,-1.46c0,0.94 0.05,1.76 0.71,2.61c0.43,0.56 1.2,1.11 1.75,1.83c0.58,0.75 0.43,1.78 0.71,2.41c0.39,0.85 1.22,1.4 1.66,2.23c0.44,0.84 1,1.34 1.65,1.91c0.63,0.55 0.37,1.65 0.97,2.33c0.67,0.77 1.67,0.46 2.53,1.09c0.62,0.45 0.95,1.46 1.54,2.04c0.72,0.71 1.52,0.99 2,1.41c0.8,0.69 1.12,1.51 1.78,2.36c0.46,0.59 1.19,1.29 1.87,1.76c0.78,0.54 1.63,0.96 1.83,1.8c0.2,0.88 0.51,1.7 1.3,2.15c0.69,0.4 1.15,1.1 1.7,1.88c0.48,0.68 1.3,1.3 2,1.65c0.81,0.4 1.83,0.4 2.48,1.04c0.65,0.64 0.86,1.47 1.52,1.98c0.77,0.59 1.32,1.4 2.02,1.48c0.95,0.11 1.89,0.04 2.63,0.38c0.73,0.34 1.47,1.11 1.94,1.81c0.53,0.79 1,1.51 1.89,1.74c0.84,0.21 1.99,-0.04 2.62,0.53c0.64,0.58 1.14,1.31 1.9,1.72c0.75,0.41 1.5,0.82 2.4,0.83c0.9,0.01 1.75,0.37 2.4,0.72c0.85,0.45 1.58,0.78 2.53,1.28c0.65,0.34 1.4,0.62 2.33,0.83c0.9,0.21 1.87,-0.06 2.73,0.19c0.78,0.23 1.12,1.3 1.92,1.74c0.75,0.4 1.78,0.24 2.53,0.24c1.04,0 1.85,0 2.79,0c0.85,0 1.65,0 2.65,0c0.91,0 1.81,0 2.71,0l0.88,0l0.83,0" fill="#0000ff" fill-opacity="null" id="svg_5" stroke="#000000" stroke-dasharray="null" stroke-linecap="null" stroke-linejoin="null" stroke-opacity="null" stroke-width="5"/>
  <path d="m73.4,168.2c0,-1.7 -0.01,-2.67 0,-3.54c0.01,-0.71 -0.08,-1.75 0.36,-2.64c0.33,-0.68 1.17,-1.25 1.94,-1.76c0.69,-0.45 0.7,-1.35 0.7,-2.25c0,-0.9 -0.17,-1.84 0.09,-2.6c0.3,-0.89 0.9,-1.6 0.91,-2.5c0.02,-0.9 -0.05,-1.8 0,-2.7c0.04,-0.8 0.48,-1.65 0.97,-2.39c0.45,-0.67 1.02,-1.24 1.45,-2.01c0.46,-0.82 0.64,-1.57 0.86,-2.37c0.2,-0.74 0.47,-1.92 0.72,-2.69c0.27,-0.88 0.85,-1.4 1.3,-2.19c0.47,-0.84 0.69,-1.7 0.7,-2.68c0.02,-0.85 -0.21,-1.85 0.17,-2.67c0.3,-0.65 1.54,-0.87 1.82,-1.61c0.32,-0.83 0.49,-1.62 0.89,-2.49c0.31,-0.66 0.73,-1.5 1.42,-2.2c0.5,-0.5 1.37,-1.12 1.64,-2c0.26,-0.86 0.19,-1.88 0.49,-2.53c0.33,-0.71 1.01,-1.52 1.56,-2.34c0.43,-0.64 0.78,-1.37 1.3,-2.08c0.48,-0.65 1.08,-1.59 1.5,-2.27c0.47,-0.75 0.92,-1.37 1.17,-2.3c0.25,-0.94 1.16,-1.23 1.59,-1.83c0.62,-0.88 0.39,-1.94 1.08,-2.37c0.75,-0.47 1.65,-0.69 2.29,-1.37c0.57,-0.61 0.98,-1.18 1.35,-2.09c0.27,-0.68 1.09,-1.27 1.81,-1.74c0.71,-0.46 0.71,-1.4 0.92,-2.28c0.23,-0.96 1.07,-1.43 1.54,-2.1c0.52,-0.73 0.78,-1.71 1.44,-2.4c0.49,-0.51 1.31,-1.12 1.71,-1.8c0.49,-0.83 0.73,-1.59 1.39,-2.3c0.55,-0.59 0.96,-1.43 1.6,-2.01c0.62,-0.56 0.97,-1.23 1.26,-2.24c0.23,-0.81 0.92,-1.48 1.33,-2c0.66,-0.85 0.94,-1.74 1.41,-2.41c0.51,-0.72 0.9,-1.45 1.4,-2.44c0.29,-0.58 0.72,-1.47 1.26,-2.16c0.63,-0.81 1.01,-1.48 1.44,-2.15c0.55,-0.86 1.18,-1.48 1.49,-2.34c0.24,-0.67 0.42,-1.44 1.01,-2.33c0.44,-0.66 1.25,-1.28 1.65,-2.11c0.41,-0.87 0.89,-1.47 1.05,-2.4c0.16,-0.92 0.31,-1.78 0.58,-2.47c0.36,-0.93 0.76,-1.53 1.62,-1.83c0.76,-0.27 0.8,-1.18 0.8,-2.11c0.01,-0.99 0.23,-1.85 0.57,-2.52c0.42,-0.81 0.37,-1.75 0.78,-2.61c0.39,-0.81 0.65,-1.56 0.65,-2.46c0,-0.9 -0.05,-1.83 0.35,-2.6c0.45,-0.85 0.65,-1.7 0.65,-2.5c0,-0.9 0,-1.72 0,-2.68c0,-0.86 -0.11,-1.76 0,-2.68c0.09,-0.73 0.74,-1.46 1.29,-2.18c0.57,-0.74 0.71,-1.65 0.71,-2.45c0,-0.9 0,-1.8 0,-2.68c0,-0.96 0,-1.82 0,-2.72c0,-0.9 0,-1.8 0,-2.6c0,-0.9 0,-1.8 0,-2.7c0,-0.9 0,-1.8 0,-2.7c0,-0.9 0.17,-1.84 -0.09,-2.6c-0.27,-0.8 -0.98,-1.54 -1.41,-2.18c-0.56,-0.81 -1.65,-1.47 -1.06,-1.9c0.61,-0.44 1.8,-0.12 2.66,-0.12c0.9,0 1.68,0.12 2.5,0.57c0.77,0.42 1.71,0.33 2.57,0.59c0.85,0.26 1.37,1.11 2,1.67c0.67,0.59 1.24,0.87 1.83,1.65c0.5,0.65 1.43,0.93 2.1,1.62c0.57,0.58 0.8,1.52 1.47,2.1c0.57,0.49 1.65,0.6 2.39,0.8c0.96,0.26 0.89,1.27 1.38,2.17c0.29,0.54 0.96,1.22 1.78,1.66c0.84,0.45 1.51,0.88 1.87,1.73c0.33,0.78 0.86,1.29 1.44,1.87c0.79,0.79 1.45,1.3 2.05,2.07c0.51,0.65 0.32,1.66 0.69,2.5c0.3,0.68 1.17,1.27 1.63,1.89c0.55,0.73 1.09,1.45 1.68,2.11c0.57,0.64 0.54,1.62 0.81,2.4c0.27,0.79 1.01,1.66 1.36,2.35c0.43,0.85 0.23,1.68 0.79,2.61c0.44,0.73 1.26,1.23 1.48,2.12c0.21,0.84 -0.07,1.82 0.31,2.62c0.35,0.74 1.03,1.36 1.34,2.07c0.46,1.03 0.97,1.61 1.41,2.27c0.5,0.76 0.55,1.55 0.9,2.53c0.31,0.85 1.06,1.31 1.12,2.19c0.06,0.83 0.3,1.7 0.85,2.2c0.77,0.69 1.16,1.4 1.5,2.29c0.27,0.71 0.62,1.59 0.65,2.55c0.03,0.9 -0.18,1.84 0.09,2.6c0.27,0.78 1.12,1.39 1.71,2c0.59,0.61 1.02,1.54 1.2,2.18c0.27,0.94 0.86,1.6 1.05,2.37c0.23,0.91 0.95,1.65 1.51,2.21c0.66,0.66 1.2,1.16 1.73,2.09c0.39,0.67 0.43,1.67 0.87,2.51c0.33,0.64 0.81,1.46 1.26,2.23c0.41,0.72 0.46,1.63 0.6,2.46c0.17,1.01 0.9,1.42 1.41,1.94c0.7,0.71 1.05,1.58 1.57,2.37c0.42,0.64 0.69,1.73 1.06,2.42c0.38,0.7 1.49,0.95 1.87,1.82c0.36,0.84 -0.07,1.96 0.64,2.42c0.67,0.43 1.92,0.03 2.53,0.61c0.63,0.61 0.51,1.61 0.9,2.5c0.31,0.69 0.86,1.5 1.28,2.25c0.42,0.75 0.93,1.51 1.41,2.09c0.67,0.79 1.21,1.28 1.59,2.19c0.29,0.72 0.88,1.35 1.54,1.88l0.69,0.43" fill="#0000ff" fill-opacity="null" id="svg_14" stroke="#000000" stroke-dasharray="null" stroke-linecap="null" stroke-linejoin="null" stroke-opacity="null" stroke-width="5"/>
  <path d="m207.4,245.2c1.05,-0.82 1.28,-1.77 1.5,-2.5c0.22,-0.73 0.48,-1.83 0.5,-2.8c0.02,-0.86 -0.15,-1.75 0.22,-2.67c0.27,-0.67 1.18,-1.26 1.49,-1.91c0.42,-0.88 0.31,-2.05 0.81,-2.57c0.63,-0.66 1.47,-0.83 1.48,-1.71c0.01,-0.81 0.34,-1.57 1.1,-2.05c0.8,-0.52 0.92,-1.38 1.6,-1.83c0.76,-0.5 1.27,-1.25 1.3,-2.15c0.03,-0.9 0.21,-1.77 0.57,-2.4c0.49,-0.86 0.9,-1.63 1.26,-2.4c0.34,-0.71 0.51,-1.66 0.87,-2.4c0.38,-0.8 0.89,-1.54 1.17,-2.57c0.21,-0.76 0,-1.69 0.21,-2.54c0.22,-0.9 0.74,-1.65 0.91,-2.48c0.21,-0.98 0.67,-1.59 0.92,-2.48c0.23,-0.84 0.41,-1.78 0.89,-2.31c0.64,-0.72 1.25,-1.43 1.48,-2.34c0.14,-0.57 0.44,-1.44 0.63,-2.52c0.15,-0.85 0.09,-1.75 0.09,-2.66c0,-0.85 0,-1.79 0,-2.78c0,-0.79 0,-1.73 0,-2.42c0,-1.07 0,-1.89 0,-2.81c0,-0.82 0,-1.85 0,-2.57c0,-0.94 -0.37,-2.1 0.11,-2.75c0.48,-0.65 1.68,-0.57 1.97,-1.25c0.39,-0.92 0.75,-1.6 0.9,-2.59c0.13,-0.91 0.02,-1.83 0.02,-2.84c0,-0.7 0,-1.68 0,-2.47c0,-1.04 0,-1.8 0,-2.77c0,-0.87 0,-1.74 0,-2.64c0,-0.9 0,-1.83 0,-2.6c0,-0.9 0,-1.8 0,-2.72c0,-0.96 0,-1.65 0,-2.72c0,-0.86 0,-1.78 0,-2.63c0,-0.73 0,-1.72 0,-2.64c0,-0.96 0,-1.79 0,-2.69c0,-0.9 0,-1.8 0,-2.56c0,-0.9 0,-1.76 0,-2.72c0,-0.93 0,-1.84 0,-2.7c0,-0.94 0,-1.83 0,-2.63c0,-0.96 0,-1.85 0,-2.63c0,-1.01 0,-1.87 0,-2.77c0,-0.9 0,-1.8 0,-2.56c0,-0.9 0,-1.76 0,-2.8c0,-0.89 0,-1.77 0,-2.62c0,-0.94 -0.25,-1.78 -0.65,-2.53c-0.42,-0.78 -0.16,-1.82 -0.41,-2.59c-0.26,-0.78 -0.77,-1.34 -0.96,-2.21c-0.18,-0.85 -0.89,-1.6 -0.98,-2.5c-0.08,-0.81 -0.29,-1.77 -0.5,-2.52c-0.22,-0.79 -0.29,-1.82 -0.53,-2.6c-0.27,-0.88 -0.79,-1.47 -0.97,-2.31c-0.19,-0.88 -1.06,-1.52 -1.48,-2.07c-0.56,-0.74 -1.01,-1.56 -1.4,-2.38c-0.32,-0.67 -0.12,-1.62 -0.12,-2.52c0,-0.9 -0.26,-1.82 -0.8,-2.4c-0.67,-0.73 -1.4,-1.22 -1.84,-1.9c-0.51,-0.79 -1.03,-1.41 -1.44,-2.1c-0.48,-0.8 -1.42,-1.05 -2.02,-1.64c-0.6,-0.6 -1.16,-1.18 -1.78,-1.78c-0.5,-0.49 -0.51,-1.63 -0.92,-2.29c-0.54,-0.88 -1.43,-1.17 -2.2,-1.82c-0.5,-0.42 -0.67,-1.57 -1.06,-2.26c-0.47,-0.83 -1.29,-1.06 -2.18,-1.36c-0.85,-0.28 -1.58,-0.91 -2.33,-1.34c-0.61,-0.35 -1.56,-0.9 -2.13,-1.41c-0.73,-0.67 -1.4,-1.24 -2.3,-1.3c-0.8,-0.05 -1.7,0 -2.64,0c-0.93,0 -1.7,-0.32 -2.71,0c-0.71,0.23 -0.54,1.44 -0.93,2.2c-0.34,0.66 -0.67,1.53 -1,2.37c-0.32,0.8 -0.55,1.74 -1.07,2.38c-0.55,0.67 -1.14,1.29 -1.48,2.22c-0.23,0.63 0.22,1.8 -0.25,2.55c-0.47,0.74 -0.91,1.17 -0.91,2.11c0,1.01 0,1.76 0,2.67c0,0.9 0,1.8 0,2.7c0,0.97 0,1.8 0,2.6c0,0.9 0,1.84 0,2.77c0,0.78 0,1.79 0,2.63c0,0.97 0,1.69 0,2.63c0,1.01 0,1.81 0,2.7c0,0.88 0,1.78 0,2.68c0,0.97 0,1.8 0,2.78c0,0.72 0,1.66 0,2.56c0,0.94 0,1.63 0,2.7c0,0.93 0,1.76 0,2.56c0,0.9 0,1.84 0,2.68c0,0.86 0,1.88 0,2.71l0,0.97" fill="#0000ff" fill-opacity="null" id="svg_12" stroke="#000000" stroke-dasharray="null" stroke-linecap="null" stroke-linejoin="null" stroke-opacity="null" stroke-width="5"/>
  <path d="m951.4,788.2c0,1.83 0,2.63 -0.43,3.4c-0.45,0.82 -0.52,1.7 -0.57,2.63c-0.04,0.78 -0.74,1.51 -0.96,2.37c-0.22,0.87 -0.47,1.56 -1.34,1.6l-0.9,0" fill="none" fill-opacity="null" id="svg_19" stroke="#000000" stroke-dasharray="null" stroke-linecap="null" stroke-linejoin="null" stroke-opacity="null" stroke-width="5"/>
  <path d="m164.4,279.2c-2.95,0 -3.74,0 -4.67,0c-0.81,0 -1.82,0 -2.54,0c-0.99,0 -1.81,0.13 -2.77,-0.22c-0.69,-0.25 -1.5,-0.73 -2.37,-0.77c-1.02,-0.05 -1.85,0 -2.82,0c-0.83,0 -1.84,0.15 -2.53,-0.06c-0.91,-0.28 -1.63,-1.04 -2.3,-1.44c-0.84,-0.5 -1.44,-1.04 -2.1,-1.6c-0.68,-0.58 -1.66,-0.84 -2.38,-0.88c-1.02,-0.06 -1.42,-0.56 -2.04,-1.02c-0.69,-0.51 -1.48,-1 -2.08,-1.6c-0.7,-0.7 -1.43,-1.16 -2.1,-1.45c-0.84,-0.36 -1.64,-0.84 -2.27,-1.37c-0.62,-0.52 -1.53,-0.82 -2.2,-1.19c-0.83,-0.45 -1.51,-1.05 -2.3,-1.37c-0.8,-0.32 -1.58,-0.97 -2,-1.52c-0.56,-0.74 -0.72,-1.8 -1.32,-2.21c-0.76,-0.53 -1.17,-1.16 -1.2,-2.29c-0.02,-0.78 -0.22,-1.61 -0.7,-2.16c-0.56,-0.64 -0.91,-1.58 -1.13,-2.5c-0.21,-0.87 -0.17,-1.78 -0.17,-2.65c0,-0.85 -0.01,-1.79 0,-2.56c0.01,-0.95 0.1,-1.76 0.57,-2.51c0.51,-0.82 1.3,-1.55 1.42,-2.3c0.15,-0.93 -0.09,-1.79 0.01,-2.59c0.11,-0.95 0.73,-1.45 1.3,-2.36c0.42,-0.68 1.09,-1.33 1.53,-2.18c0.39,-0.74 0.47,-1.64 0.74,-2.34c0.36,-0.93 0.27,-1.96 0.51,-2.63c0.33,-0.9 1.21,-1.5 1.71,-2c0.7,-0.7 1.44,-1.2 1.91,-2c0.46,-0.77 0.53,-1.71 0.93,-2.41c0.47,-0.82 1.01,-1.38 1.53,-1.99c0.67,-0.79 1.15,-1.59 1.54,-2.23c0.53,-0.88 0.95,-1.67 1.46,-2.37c0.54,-0.74 1.4,-0.94 2.18,-1.59c0.69,-0.58 0.95,-1.36 1.41,-1.96c0.64,-0.83 1.45,-1.19 2.22,-1.75c0.69,-0.5 1.33,-1.33 2.02,-1.73c0.83,-0.48 1.35,-1.15 1.85,-1.58c0.84,-0.72 0.91,-1.51 1.48,-2.42c0.41,-0.65 1.12,-0.9 1.78,-1.94c0.3,-0.46 0.56,-1.29 0.99,-2.31c0.37,-0.89 0.8,-1.74 0.89,-2.51c0.11,-0.93 0.25,-1.73 0.59,-2.59c0.32,-0.8 0.54,-1.6 1,-2.43c0.43,-0.77 1.18,-1.34 1.42,-2.1c0.26,-0.82 0.85,-1.34 1,-2.06c0.18,-0.87 -0.05,-1.83 0.44,-2.6c0.53,-0.84 1.32,-1.36 1.51,-2.29c0.14,-0.68 -0.2,-1.75 0.06,-2.64c0.23,-0.77 1.34,-0.89 1.71,-1.59c0.45,-0.85 0.29,-1.87 0.29,-2.76c0,-0.84 0,-1.7 0,-2.71c0,-0.87 0,-1.75 0,-2.53c0,-0.93 -0.04,-1.89 0.28,-2.68c0.32,-0.8 0.69,-1.67 0.72,-2.53c0.03,-0.9 0,-1.7 0,-2.6c0,-0.9 0,-1.8 0,-2.7c0,-0.9 0,-1.92 0,-2.58c0,-1.04 0.12,-1.84 -0.06,-2.78c-0.18,-0.92 -0.76,-1.49 -0.94,-2.53c-0.16,-0.9 0.03,-1.82 0,-2.71c-0.03,-0.76 -0.35,-1.66 -0.7,-2.4c-0.39,-0.8 -0.75,-1.6 -1.3,-2.43c-0.46,-0.69 -1.14,-1.47 -1.48,-2.17c-0.4,-0.81 -0.52,-1.64 -0.52,-2.54c0,-0.94 -0.01,-1.64 -0.35,-2.7c-0.23,-0.71 0.63,-0.76 1.51,-0.76c0.83,0 1.81,-0.02 2.71,0c0.77,0.02 1.63,0.23 2.47,0.7c0.8,0.45 1.39,0.99 2.31,1.25c0.74,0.2 1.75,0.61 2.32,1.05c0.86,0.66 1.52,0.98 2.5,1c0.86,0.02 1.82,-0.16 2.62,0.22c0.74,0.35 1.39,0.96 2.07,1.38c0.95,0.58 1.5,1.18 2.27,1.62c0.71,0.41 1.73,0.54 2.56,0.95c0.67,0.33 1.27,1.17 1.89,1.63c0.73,0.55 1.51,0.83 2.35,1.5c0.72,0.57 1.28,1.26 2.08,1.8c0.64,0.43 1.39,1.02 1.76,1.7c0.44,0.8 0.76,1.63 1.2,2.4c0.39,0.69 1.13,1.18 1.81,1.9c0.56,0.59 0.81,1.44 1.26,2.2c0.54,0.93 1.15,1.46 1.48,2.36c0.27,0.75 0.12,1.57 0.39,2.53c0.23,0.82 0.57,1.41 1.08,2.4c0.39,0.75 1.02,1.44 1.41,2.2c0.43,0.84 0.24,1.74 0.57,2.69c0.24,0.71 0.58,1.65 0.8,2.4c0.28,0.95 0.87,1.38 1.56,2.16c0.49,0.56 0.35,1.59 0.36,2.47c0.01,0.9 0.16,1.81 0.35,2.48c0.29,0.99 0.58,1.85 0.64,2.74c0.06,0.9 -0.11,1.69 0.02,2.7c0.11,0.89 0.61,1.52 0.87,2.53c0.23,0.88 0.37,1.61 0.83,2.37c0.46,0.78 1.06,1.36 1.59,2.31c0.3,0.53 0.63,1.54 0.68,2.32c0.08,1.13 0.15,2.05 0.63,2.62c0.64,0.75 1.3,1.39 1.39,2.2c0.09,0.9 0,1.8 0,2.7c0,0.9 -0.15,1.82 0.06,2.61c0.22,0.82 0.7,1.48 0.89,2.49c0.14,0.74 0.6,1.73 0.89,2.57c0.27,0.8 0.17,1.81 0.17,2.67c0,0.88 0,1.68 0,2.65c0,0.82 0,1.69 0,2.59c0,0.73 0,1.77 0,2.71c0,0.68 0,1.65 0,2.46c0,0.87 0,2.06 0,2.65c0,0.84 0,1.97 0,2.86c0,0.91 0,1.66 0,2.65c0,0.89 0,1.77 0,2.64c0,0.96 0,1.75 0,2.79c0,0.79 0,1.65 0,2.51c0,1.02 0.09,1.88 -0.17,2.62c-0.3,0.84 -0.82,1.52 -1.26,2.18c-0.63,0.95 -1.33,1.59 -1.51,2.51c-0.14,0.68 0.01,1.74 -0.28,2.67c-0.22,0.72 -0.66,1.67 -0.74,2.47c-0.08,0.72 -0.02,1.83 -0.46,2.61c-0.41,0.73 -0.58,1.52 -1.01,2.41c-0.31,0.65 -1.29,1.03 -1.95,1.62c-0.69,0.62 -0.89,1.49 -1.61,1.99c-0.66,0.46 -1.61,0.25 -2.5,0.74c-0.65,0.36 -1.31,0.46 -2.06,0.87c-0.73,0.39 -0.87,1.64 -1.73,1.91c-0.83,0.26 -1.66,0.3 -2.34,0.63c-0.97,0.48 -1.84,0.37 -2.37,0.85c-0.56,0.5 -1.39,0.57 -2.29,0.57c-0.9,0 -1.76,0.29 -2.4,0.65c-0.85,0.47 -1.61,0.97 -2.5,1.27c-0.81,0.27 -1.8,0.06 -2.6,0.09c-0.9,0.03 -1.63,0.66 -2.4,0.91c-0.86,0.28 -1.83,0.09 -2.6,0.09c-1.03,0 -1.83,0 -2.6,0.43c-0.82,0.45 -1.7,0.57 -2.6,0.57c-0.8,0 -1.7,0 -2.6,0c-0.96,0 -1.84,0 -2.7,0c-0.86,0 -1.7,0 -2.67,0c-0.82,0 -1.78,0 -2.67,0c-0.69,0 -1.71,0 -2.65,0c-0.9,0 -1.8,0 -2.7,0c-0.8,0 -1.76,0 -2.65,0c-0.78,0 -1.79,0 -2.65,0c-0.9,0 -1.8,0 -2.7,0c-0.8,0 -1.76,0 -2.65,0c-0.78,0 -1.79,0 -2.65,0c-0.9,0 -1.85,0.18 -2.7,-0.17c-0.67,-0.28 -1.52,-0.82 -2.32,-0.83c-0.82,-0.01 -1.77,-0.27 -2.38,-0.65c-0.85,-0.53 -1.8,-0.6 -2.47,-0.96c-0.83,-0.45 -1.24,-1.23 -1.85,-1.95c-0.48,-0.58 -1.63,-0.44 -2.32,-0.44l-1.02,-0.01" fill="#0000ff" id="svg_1" stroke="#000000" stroke-width="5"/>
  <path d="m106.4,265.2c3.54,0 4.34,0 5.36,0c0.84,0 1.74,0 2.64,0c0.8,0 1.43,0.37 2.22,0.88c0.75,0.48 1.75,0.34 2.38,0.7c0.84,0.48 1.76,0.43 2.7,0.43c0.86,0 1.72,0 2.7,0c0.79,0 1.51,0 2.59,0c0.89,0 2.16,0.42 1.76,0.91c-0.55,0.67 -1.82,0.09 -2.65,0.09c-0.9,0 -1.8,0 -2.7,0c-0.8,0 -1.7,0 -2.6,0c-0.92,0 -1.88,0 -2.57,0c-1.07,0 -1.93,0 -2.71,0c-0.94,0 -1.95,0 -2.7,0c-0.91,0 -1.82,0.13 -2.71,0c-0.93,-0.14 -1.57,-0.9 -2.27,-1.28c-0.64,-0.35 -1.64,-0.79 -2.41,-1.21c-0.87,-0.48 -1.47,-1.11 -2.34,-1.38c-0.66,-0.2 -2.1,0.31 -2.56,-0.34c-0.45,-0.64 0.88,-0.78 1.68,-0.78c0.9,0 1.8,0 2.7,0c0.9,0 1.86,-0.15 2.7,0.29c0.62,0.32 1.43,1.06 2.15,1.36c0.87,0.36 1.46,0.89 1.94,1.56c0.46,0.64 1.55,0.78 2.31,0.8c0.99,0.03 1.91,0.02 2.45,0.71c0.56,0.71 1.25,1.27 2.15,1.3c0.9,0.03 1.75,0 2.66,0c0.66,0 1.73,0 2.62,0c0.88,0 2.37,0.35 2.47,-0.43c0.11,-0.79 -1.2,-1.01 -1.79,-1.74c-0.57,-0.7 -0.77,-1.44 -1.47,-2.13c-0.5,-0.5 -1.21,-1.15 -1.92,-1.92c-0.52,-0.56 -0.78,-1.48 -0.78,-2.38c0,-0.9 0,-1.8 0,-2.7c0,-0.9 0,-1.8 0,-2.65c0,-0.85 0,-1.75 0,-2.65c0,-0.88 0,-1.76 0,-2.7c0,-0.9 0.24,-1.65 0.65,-2.34c0.44,-0.76 0.3,-1.6 0.57,-2.56c0.23,-0.78 1.16,-1.27 1.66,-2.02c0.49,-0.74 0.34,-1.75 0.7,-2.38c0.48,-0.84 0.57,-1.74 0.95,-2.42c0.46,-0.83 1.08,-1.57 1.68,-2.18c0.68,-0.68 1.24,-1.23 1.72,-2c0.45,-0.74 0.79,-1.38 1.09,-2.19c0.27,-0.73 0.91,-1.29 1.43,-2.01c0.56,-0.79 1.04,-1.4 1.56,-2.08c0.51,-0.65 0.83,-1.13 1.11,-1.87c0.38,-1 1.28,-1.18 2.12,-1.6c0.78,-0.38 0.99,-1.27 1.56,-1.85c0.59,-0.6 1.01,-1.42 1.2,-2.3c0.18,-0.85 1.08,-1.19 1.48,-1.92c0.5,-0.91 0.84,-1.44 1.4,-2.2c0.47,-0.65 0.99,-1.08 1.29,-1.95c0.23,-0.67 0.6,-1.37 1.22,-2.19c0.58,-0.76 0.61,-1.65 0.61,-2.45c0,-0.9 0.05,-1.85 0.7,-2.25c0.77,-0.48 1.27,-1.25 1.3,-2.15c0.03,-0.9 0,-1.8 0,-2.6c0,-0.9 0.15,-1.92 -0.44,-2.59c-0.61,-0.7 -1.65,-0.58 -2.56,-0.61c-0.76,-0.03 -1.72,-0.25 -2.29,-0.7c-0.81,-0.64 -1.27,-1.25 -2.19,-1.58c-0.71,-0.25 -1.63,-0.67 -2.54,-0.72c-0.78,-0.04 -1.67,0 -2.57,0c-0.96,0 -1.84,0 -2.7,0c-0.9,0 -1.8,0 -2.73,0c-0.78,0 -1.67,0 -2.57,0l-0.96,0l-0.87,0l-0.86,0" fill="#0000ff" fill-opacity="null" id="svg_21" stroke="#000000" stroke-dasharray="null" stroke-linecap="null" stroke-linejoin="null" stroke-opacity="null" stroke-width="5"/>
  <path d="m188.4,101.2c1,1 1,1.8 1,2.7c0,0.9 0,1.78 0,2.66c0,0.96 0,1.81 0,2.75c0,0.89 0,1.69 0,2.59c0,0.9 0,1.78 0,2.66c0,0.95 0,1.81 0,2.62c0,0.97 -0.3,2.01 0.22,2.78c0.45,0.67 0.78,1.34 0.78,2.24c0,0.8 0,1.7 0,2.6c0,0.88 0,1.84 0,2.7c0,0.86 0,1.67 0,2.67c0,0.82 0.01,1.72 0,2.62c-0.01,0.9 -0.35,1.7 -1,2.4c-0.56,0.6 -0.74,1.44 -1,2.3c-0.24,0.78 -1.25,1.24 -1.56,1.89c-0.43,0.9 0.02,2.09 -0.66,2.69c-0.66,0.59 -1.64,0.24 -2.18,0.98c-0.45,0.62 -1.04,1.47 -1.48,2.24c-0.46,0.79 -1.38,0.73 -2.12,1.07c-0.8,0.37 -1.2,1.24 -1.99,1.81c-0.66,0.48 -1.45,0.83 -2.03,1.59l-0.69,0.43l-0.86,0" fill="none" fill-opacity="null" id="svg_22" stroke="#000000" stroke-dasharray="null" stroke-linecap="null" stroke-linejoin="null" stroke-opacity="null" stroke-width="5"/>
  <path d="m189.4,99.2c-1,-1 -1,-1.8 -1,-2.71c0,-0.85 0,-1.64 0,-2.65c0,-0.93 0.48,-1.38 1.3,-1.64c0.76,-0.24 0.7,-1.3 0.7,-2.2c0,-0.9 0,-1.8 0,-2.6c0,-0.96 0,-1.85 0,-2.63c0,-1.01 -0.11,-1.88 0,-2.77c0.11,-0.92 0.77,-1.65 1.6,-1.79c0.89,-0.15 1.79,-0.01 2.76,-0.01c0.84,0 1.74,0 2.64,0c0.91,0 0.96,0.77 1.52,1.5c0.59,0.78 1.14,1.24 1.87,1.89c0.74,0.66 1.39,0.92 1.61,1.81c0.21,0.84 0.89,1.15 1.83,1.8c0.65,0.45 1.56,0.75 2.08,1.29c0.61,0.62 0.83,1.45 1.74,2.01c0.68,0.42 1.48,0.88 2.04,1.4c0.73,0.67 1.5,1.22 2.3,1.47l0.6,0.44l0.7,0.68" fill="none" fill-opacity="null" id="svg_24" stroke="#000000" stroke-dasharray="null" stroke-linecap="null" stroke-linejoin="null" stroke-opacity="null" stroke-width="5"/>
  <path d="m73.4,183.2c0.71,3.19 1.47,3.65 1.89,4.66c0.29,0.71 0.37,1.75 0.63,2.34c0.44,1.02 0.92,1.77 1.19,2.51c0.31,0.83 0.26,1.8 0.71,2.47c0.49,0.74 0.6,1.56 1,2.38c0.43,0.87 0.41,1.7 0.66,2.44c0.3,0.89 0.65,1.64 0.92,2.49c0.24,0.76 0.98,1.32 1,2.2c0.01,0.9 0.27,1.71 0.8,2.3c0.58,0.64 1.22,1.52 1.5,2.21c0.32,0.8 0.5,1.39 0.9,2.58c0.28,0.86 0.43,1.66 0.75,2.58c0.27,0.76 0.98,1.28 1.27,2.14c0.24,0.69 0.56,1.69 0.83,2.37c0.35,0.88 1.08,1.61 1.43,2.3c0.4,0.81 0.51,1.7 0.52,2.6c0.01,0.92 0.12,1.78 0.61,2.54c0.49,0.76 1.26,1.16 1.56,2.03c0.29,0.85 0.59,1.69 0.86,2.42c0.31,0.85 0.83,1.63 1.14,2.58c0.22,0.68 0.58,1.39 1.23,2.2c0.55,0.68 1.24,1.24 1.7,1.96c0.51,0.79 0.83,1.68 0.91,2.54c0.1,0.98 0.44,1.64 0.94,2.43c0.45,0.72 1.16,1.14 1.65,1.89c0.51,0.79 0.88,1.61 1.4,2.29c0.48,0.63 1.48,0.54 2.06,1.13l0.64,0.68l0.73,0.42l0.85,0.29" fill="none" fill-opacity="null" id="svg_33" opacity="0.3" stroke="#000000" stroke-dasharray="null" stroke-linecap="null" stroke-linejoin="null" stroke-opacity="null" stroke-width="5"/>
  <path d="m87.4,174.2c-1.39,-0.86 -1.91,-1.82 -1.99,-2.59c-0.1,-0.91 -0.01,-1.81 -0.01,-2.71c0,-0.9 0,-1.8 0,-2.7c0,-0.8 0,-1.7 0,-2.6c0,-0.92 0,-1.88 0,-2.57c0,-1.07 -0.2,-1.99 0.17,-2.83c0.3,-0.68 1.3,-1.2 1.67,-2c0.34,-0.74 0.54,-1.43 1.05,-2.22c0.48,-0.75 0.14,-1.69 0.48,-2.43c0.37,-0.82 1.41,-1.27 1.64,-2.06c0.25,-0.86 -0.16,-1.9 0.36,-2.59c0.57,-0.75 1.54,-1.03 1.62,-1.73c0.11,-0.95 -0.37,-1.91 0.11,-2.69c0.49,-0.8 1.2,-1.34 1.56,-1.99c0.47,-0.85 0.77,-1.72 1.45,-2.18c0.71,-0.48 0.74,-1.32 0.9,-2.23c0.15,-0.84 1.13,-1.08 1.71,-1.6c0.76,-0.68 1.46,-1.32 1.85,-1.88c0.56,-0.83 0.7,-1.85 1.54,-2.28c0.65,-0.33 1.54,-0.74 2,-1.44c0.42,-0.65 0.82,-1.65 0.9,-2.48c0.08,-0.83 0.23,-1.71 0.71,-2.55c0.45,-0.79 1.12,-1.29 1.94,-1.65c0.82,-0.36 1.14,-1.16 1.52,-2c0.3,-0.65 1.26,-1.05 1.86,-1.57c0.64,-0.57 0.78,-1.26 1.03,-2.13c0.26,-0.88 0.91,-1.59 0.94,-2.52c0.03,-0.94 -0.05,-1.6 0,-2.61c0.04,-0.88 0.88,-1.22 1.52,-1.67c0.73,-0.51 1.46,-0.94 1.48,-1.9c0.02,-0.9 0.54,-1.48 1,-2.12c0.5,-0.7 1,-1.48 1.6,-2.08c0.6,-0.6 1.33,-1.27 1.4,-2.1c0.07,-0.81 0.2,-1.83 0.61,-2.43c0.57,-0.84 1.43,-1.06 1.83,-1.71c0.51,-0.85 1.24,-1.25 1.65,-1.95c0.45,-0.79 0.82,-1.6 1.2,-2.4c0.35,-0.73 0.39,-1.75 0.88,-2.47c0.43,-0.62 1.52,-0.76 2.31,-1.33c0.58,-0.42 0.35,-1.56 0.8,-2.28c0.48,-0.76 0.77,-1.42 1.22,-2.22c0.45,-0.8 1.05,-1.37 1.48,-2c0.47,-0.7 0.9,-1.49 1.02,-2.3c0.14,-0.91 0.94,-1.41 1,-2.25c0.07,-0.94 -0.07,-1.87 0.52,-2.43c0.73,-0.69 1.93,-0.61 2.36,-1.4c0.4,-0.73 0.12,-1.72 0.12,-2.62c0,-0.89 0,-1.79 0,-2.7c0,-0.9 0,-1.8 0,-2.63c0,-0.87 0,-1.77 0,-2.67c0,-0.89 0,-1.79 0,-2.67c0,-0.83 0,-1.81 0,-2.63c0,-0.9 -0.01,-1.8 0,-2.7c0.01,-0.91 0.22,-1.82 0.52,-2.5l0.48,-0.83l0.48,-0.65" fill="none" fill-opacity="null" id="svg_34" opacity="0.3" stroke="#000000" stroke-dasharray="null" stroke-linecap="null" stroke-linejoin="null" stroke-opacity="null" stroke-width="5"/>
  <path d="m133.4,262.2c0,-1.7 0,-2.64 0,-3.57c0,-0.78 0,-1.79 0,-2.73c0,-0.87 0,-1.7 0,-2.59c0,-0.93 0,-1.78 0,-2.64c0,-0.88 -0.24,-1.81 0,-2.77c0.18,-0.71 1.36,-0.55 2.1,-0.93c0.69,-0.35 1.41,-1.11 1.82,-1.98c0.36,-0.76 0.89,-1.26 1.65,-1.83c0.61,-0.46 1.22,-1.16 1.87,-1.69c0.67,-0.54 0.76,-1.6 1.37,-2c0.81,-0.52 1.73,-0.78 2.4,-1.49c0.54,-0.58 0.38,-1.51 0.84,-2.36c0.34,-0.63 1.59,-0.35 2.16,-1.01c0.59,-0.68 0.6,-1.74 1.02,-2.53c0.37,-0.69 1.09,-1.46 1.35,-2.09c0.38,-0.91 0.46,-1.96 1.13,-2.46c0.69,-0.51 2,-0.24 2.28,-0.97c0.33,-0.83 0.43,-1.65 0.89,-2.49c0.41,-0.75 1.22,-0.9 2.12,-0.9c0.83,0 0.66,-0.83 1.17,-1.67c0.43,-0.71 1.15,-1.36 1.69,-1.73c0.63,-0.43 1.53,-0.98 2.05,-1.8c0.47,-0.73 0.74,-1.3 1.09,-2.19c0.29,-0.72 1.51,-0.5 1.99,-1.13c0.52,-0.68 0.94,-1.57 1,-2.48c0.06,-0.83 0.58,-1.48 0.95,-2.3c0.35,-0.77 0.56,-1.61 1.11,-2.34c0.51,-0.68 0.81,-1.42 1.17,-2.34c0.26,-0.66 0.77,-1.52 0.78,-2.42c0.01,-0.9 0.19,-1.72 0.7,-2.3c0.65,-0.73 1.2,-1.5 1.3,-2.4c0.08,-0.79 0.4,-1.53 0.72,-2.42c0.3,-0.83 0.21,-1.81 0.45,-2.65c0.25,-0.86 0.74,-1.66 0.82,-2.46c0.11,-1.02 0.01,-1.72 0.01,-2.74c0,-0.94 0,-1.84 0,-2.74c0,-0.9 0,-1.73 0,-2.6c0,-0.9 0,-1.8 0,-2.68l0,-0.9" fill="none" fill-opacity="null" id="svg_36" opacity="0.3" stroke="#000000" stroke-dasharray="null" stroke-linecap="null" stroke-linejoin="null" stroke-opacity="null" stroke-width="5"/>
  <path d="m180.4,166.2c1.17,1 1.64,1.62 2.1,2.32c0.43,0.66 1.08,1.61 1.46,2.3c0.45,0.81 0.42,1.63 0.6,2.54c0.15,0.79 0.45,1.56 0.71,2.69c0.17,0.75 0.41,1.62 0.77,2.43c0.35,0.79 0.31,1.78 0.39,2.47c0.12,1.11 0.56,1.71 0.8,2.57c0.24,0.9 0.07,1.71 0.45,2.7c0.32,0.82 0.68,1.61 0.72,2.45c0.03,0.86 0.6,1.61 0.94,2.47c0.28,0.71 0.05,1.57 0.06,2.64c0.01,0.82 0.24,1.73 0.5,2.43c0.36,0.97 0.48,1.76 0.5,2.74c0.02,0.85 0,1.74 0,2.64c0,0.9 0.27,1.82 0.8,2.4c0.57,0.62 1.16,1.4 1.2,2.3c0.04,0.92 -0.02,1.7 0,2.6c0.02,0.9 0.7,1.55 1,2.47c0.23,0.68 0,1.66 0,2.67c0,0.76 0,1.67 0,2.57c0,0.9 0,1.8 0,2.77c0,0.72 0,1.66 0,2.67c0,0.76 0,1.67 0,2.57c0,0.9 0,1.8 0,2.7c0,0.9 0,1.7 0,2.6c0,0.94 0,1.82 0,2.7c0,0.9 0,1.8 0,2.77c0,0.83 0,1.63 0,2.53c0,0.94 -0.77,1.25 -1,2c-0.25,0.86 0.09,1.8 0,2.68c-0.09,0.79 -0.86,1.46 -1.35,1.91l-0.89,0.6l-0.73,0.55" fill="none" fill-opacity="null" id="svg_37" opacity="0.3" stroke="#000000" stroke-dasharray="null" stroke-linecap="null" stroke-linejoin="null" stroke-opacity="null" stroke-width="5"/>
  <path d="m213.4,210.2c0,-1.7 0,-2.6 0,-3.52c0,-0.96 -0.08,-1.69 0.29,-2.6c0.32,-0.8 0.83,-1.64 1.1,-2.55c0.19,-0.62 0.53,-1.66 0.61,-2.56c0.08,-0.87 0,-1.78 0,-2.58c0,-0.9 -0.01,-1.87 0,-2.74c0.01,-0.7 -0.23,-1.93 0.61,-2.43c0.75,-0.44 1.38,-0.64 1.39,-1.53c0.01,-0.9 0,-1.89 0,-2.79c0,-0.81 0,-1.6 0,-2.53c0,-1.02 -0.01,-1.8 0,-2.69c0.01,-0.9 0.5,-1.72 0.83,-2.5c0.32,-0.75 0.22,-1.7 0.67,-2.5c0.44,-0.8 0.67,-1.66 1.2,-2.2c0.69,-0.69 1.23,-1.39 1.3,-2.3c0.06,-0.91 0,-1.7 0,-2.6c0,-0.9 0,-1.79 0,-2.76c0,-0.84 0,-1.74 0,-2.64c0,-0.92 0,-1.7 0,-2.64c0,-0.85 0.07,-1.71 0,-2.62c-0.08,-1.09 -0.34,-1.75 -0.57,-2.46c-0.33,-1.03 -0.43,-1.9 -0.43,-2.79c0,-0.9 0,-1.8 0,-2.72c0,-0.95 0,-1.6 0,-2.61c0,-0.88 0,-1.78 0,-2.67c0,-0.9 0,-1.8 0,-2.7c0,-0.9 0,-1.8 0,-2.6c0,-0.91 0.04,-1.76 -0.28,-2.68c-0.25,-0.71 -0.67,-1.63 -0.71,-2.4c-0.05,-0.95 0,-1.72 0,-2.71c0,-0.84 -0.37,-1.76 -1,-2.41c-0.57,-0.59 -0.98,-1.4 -1,-2.3c-0.02,-0.93 0,-1.87 0,-2.53c0,-1.01 0,-1.87 0,-2.77c0,-0.9 0.14,-1.87 -0.28,-2.6c-0.48,-0.83 -1.3,-1.35 -1.72,-1.82c-0.7,-0.79 -0.98,-1.59 -1.43,-2.38c-0.46,-0.82 -0.39,-1.72 -0.59,-2.59c-0.18,-0.78 -0.67,-1.54 -0.96,-2.38c-0.34,-0.95 -0.74,-1.68 -1.11,-2.44c-0.41,-0.83 -1.57,-0.99 -1.9,-1.74c-0.38,-0.86 0.02,-1.64 -0.52,-2.44c-0.49,-0.72 -1.27,-0.98 -2,-1.54c-0.77,-0.59 -1.14,-1.31 -1.5,-2.12c-0.36,-0.82 -1.09,-1.36 -2,-1.52l-0.6,-0.44l-0.7,-0.69" fill="none" fill-opacity="null" id="svg_38" opacity="0.3" stroke="#000000" stroke-dasharray="null" stroke-linecap="null" stroke-linejoin="null" stroke-opacity="null" stroke-width="5"/>
  <path d="m141.4,36.2c2.46,0.52 2.78,1.46 3.44,1.97c0.65,0.51 1.36,0.83 2.06,1.53c0.7,0.7 1.34,1.27 1.49,2.1c0.17,0.91 0.26,1.9 0.62,2.57c0.45,0.83 0.94,1.46 1.69,2.12c0.66,0.58 1.62,0.86 1.7,1.7c0.08,0.8 0.02,1.82 0.43,2.44c0.55,0.84 0.9,1.6 1.29,2.36c0.4,0.79 0.74,1.63 1.28,2.22c0.44,0.49 0.9,1.46 1,2.37c0.11,0.95 0.56,1.61 0.83,2.44c0.28,0.84 0.61,1.58 1.33,2.33c0.48,0.49 1.3,1.08 1.66,1.95c0.38,0.92 0.13,1.77 0.18,2.72c0.04,0.77 0.23,1.83 0.69,2.45c0.58,0.77 1.67,0.85 2.27,1.26c0.77,0.52 1,1.46 1.02,2.44c0.02,0.72 -0.01,1.62 0,2.52c0.01,0.9 0.29,1.91 0.89,2.21c0.86,0.44 1.99,0.48 2.11,1.17c0.16,0.92 -0.17,1.98 0.06,2.81c0.22,0.78 0.87,1.62 0.92,2.3c0.09,1.11 -0.32,2.15 0.19,2.83c0.48,0.65 0.72,1.34 0.85,2.15c0.14,0.88 0.87,1.4 1.15,2.19c0.29,0.84 1.19,1.31 1.71,2.05c0.47,0.67 0.78,1.27 1.62,1.8c0.75,0.48 1.1,1.16 1.6,1.96l0.54,0.66l0.37,0.8" fill="none" fill-opacity="null" id="svg_39" opacity="0.3" stroke="#000000" stroke-dasharray="null" stroke-linecap="null" stroke-linejoin="null" stroke-opacity="null" stroke-width="5"/>
  <path d="m146.4,190.2c0.43,-1.81 0.82,-2.67 1.36,-3.36c0.63,-0.81 1.09,-1.44 1.36,-2.15c0.35,-0.94 0.29,-1.88 0.29,-2.78c0,-0.9 0,-1.8 0,-2.67c0,-0.83 0,-1.73 0,-2.63c0,-0.88 0,-1.84 0,-2.59c0,-0.93 0,-1.91 0,-2.81c0,-0.76 0,-1.65 0,-2.52c0,-0.98 0,-1.81 0,-2.66c0,-0.94 0,-1.93 0,-2.83l0,-0.8l0,-0.84" fill="none" fill-opacity="null" id="svg_40" opacity="0.3" stroke="#000000" stroke-dasharray="null" stroke-linecap="null" stroke-linejoin="null" stroke-opacity="null" stroke-width="5" transform="rotate(10 148 175.882)"/>
  <path d="m108,266.4c1.8,0 2.72,-0.15 3.39,0.44c0.7,0.61 0.9,1.63 1.63,2.04c0.77,0.43 1.64,0.62 1.98,1.52c0.31,0.82 1.15,0.82 2,1.17c0.78,0.32 1.51,0.73 2.41,0.84c0.93,0.12 1.55,0.6 2.57,0.87c0.8,0.21 1.72,0.12 2.62,0.12c0.81,0 1.72,0 2.54,0c1.03,0 1.96,0 2.86,0c0.8,0 1.64,0 2.52,0c0.98,0 1.95,-0.14 2.68,0.28c0.78,0.45 1.52,0.75 2.2,1.14c0.81,0.46 1.75,0.39 2.6,0.74c0.78,0.32 1.5,0.82 2.4,0.83c0.9,0.01 1.82,-0.1 2.77,0.17c0.68,0.19 1.32,0.68 2.42,0.82c0.81,0.11 1.73,0.01 2.59,0.01c0.94,0 1.78,0.24 2.53,0.65c0.76,0.41 1.73,0.29 2.62,0.57c0.72,0.22 1.67,0.66 2.47,0.74c1.04,0.1 1.85,0.02 2.69,0.32c0.71,0.25 1.63,0.67 2.62,0.72c0.85,0.04 1.66,0 2.55,0c0.86,0 1.81,0 2.7,0c0.84,0 1.74,0 2.74,0c0.85,0 1.66,0 2.55,0c0.86,0 1.81,0 2.7,0c0.84,0 1.81,0 2.62,0c0.96,-0.01 1.42,-0.58 2,-1.39c0.47,-0.67 1.28,-1.03 2.13,-1.49c0.75,-0.41 1.35,-0.97 2.09,-1.15c0.94,-0.22 1.67,-0.72 2.2,-1.37c0.6,-0.74 0.97,-1.56 1.78,-1.6c0.81,-0.04 1.72,-0.36 2.26,-0.97c0.56,-0.64 0.48,-1.65 1.12,-2.03c0.84,-0.51 1.62,-0.61 2.57,-0.92c0.88,-0.28 1.59,-0.73 2.39,-1.08c0.8,-0.36 1.59,-0.93 2.06,-1.6c0.51,-0.72 1.45,-0.98 1.43,-1.68c-0.01,-0.54 -1.3,0.08 -2.1,0.5c-0.64,0.34 -0.86,1.44 -1.19,2.26c-0.27,0.68 -1.27,1.1 -1.71,1.74c-0.5,0.71 -0.75,1.44 -1.3,2.08c-0.64,0.75 -0.94,1.49 -1.8,1.7c-0.84,0.2 -1.07,0.94 -2,1c-0.7,0.04 -1.49,0.6 -2.3,0.97c-0.88,0.41 -1.08,1.28 -1.77,1.86c-0.65,0.54 -1.63,0.17 -2.53,0.17c-0.9,0 -1.8,0 -2.7,0c-0.9,0 -1.8,0 -2.7,0c-0.9,0 -1.7,0 -2.6,0c-0.9,0 -1.84,0.05 -2.78,-0.28c-0.68,-0.24 -1.51,-0.74 -2.09,-1.28c-0.61,-0.58 -1.38,-1.31 -2.23,-1.43c-0.89,-0.13 -1.8,0 -2.7,0c-0.9,0 -1.8,0 -2.7,0c-0.97,0 -1.64,-0.18 -2.63,0c-0.63,0.11 0.04,0.66 1.03,0.88c0.77,0.17 1.78,0.12 2.55,0.12c0.9,0 1.76,0 2.73,0c0.92,0 1.83,0 2.69,0c0.81,0 1.81,0 2.6,0c0.89,0 1.75,0 2.7,0c0.98,0 1.85,0 2.71,0c0.83,0 1.81,0 2.63,0c0.9,0 1.88,0.34 2.68,-0.02c0.77,-0.35 1.23,-0.98 2.12,-0.98c0.9,0 2.11,0.13 2.39,-0.57c0.35,-0.88 0.2,-2.08 -0.51,-2.4c-0.81,-0.37 -1.8,0.21 -2.48,0.48c-0.97,0.39 -1.83,0.31 -2.7,0.56c-0.76,0.22 -1.28,1.2 -2.01,1.66c-0.77,0.47 -1.68,0.24 -2.53,0.64c-0.81,0.38 -1.64,0.64 -2.47,1c-0.65,0.29 -1.65,0.63 -2.49,0.65c-0.91,0.02 -1.88,-0.16 -2.63,0.28c-0.73,0.44 -1.46,0.71 -2.39,0.72c-0.88,0 -1.78,0 -2.58,0c-0.9,0 -1.8,0 -2.7,0c-0.9,0 -1.8,0 -2.72,0c-0.88,0 -1.78,0 -2.58,0c-0.91,0 -1.81,0 -2.7,0c-0.9,0 -1.8,0 -2.72,0c-0.88,0 -1.78,0 -2.58,0c-0.91,0 -1.81,0 -2.7,0c-0.9,0 -1.8,0 -2.72,0c-0.88,0 -1.78,0 -2.58,0c-0.91,0 -1.91,0 -2.61,0c-0.99,0 -1.88,0 -2.81,0c-0.88,0 -1.78,0 -2.58,0c-0.9,0 -1.81,0.11 -2.72,-0.02c-0.99,-0.14 -1.62,-0.55 -2.48,-0.98c-0.71,-0.35 -1.52,-0.8 -2.24,-1.3c-0.86,-0.58 -1.71,-0.71 -2.47,-1.06c-0.64,-0.29 -1.65,-0.63 -2.59,-0.65c-0.9,-0.02 -1.8,0 -2.59,0c-0.94,-0.01 -1.65,-0.04 -2.59,-0.5c-0.84,-0.41 -1.33,-1.17 -2.04,-1.48c-0.8,-0.35 -1.32,-0.73 -1.92,-1.24c-0.63,-0.53 -1.67,-0.74 -2.56,-0.78c-0.88,-0.04 -1.7,-0.39 -2.35,-0.65c-0.87,-0.35 -2.63,-0.36 -2.48,-1.19c0.08,-0.47 1.33,-0.17 2.23,-0.17c0.9,0 1.76,0.17 2.3,0.7c0.69,0.69 1.49,1.25 2.3,1.3c0.94,0.05 1.15,0.92 2,1c0.8,0.08 1.7,0.06 2.5,0.5c0.8,0.45 1.67,0.66 2.33,0.93c1.01,0.4 1.84,0.52 2.53,0.93c0.78,0.47 1.64,0.61 2.44,0.65c0.92,0.04 1.53,0.84 2.22,1c0.96,0.23 1.63,0.81 2.54,0.99c0.86,0.17 1.84,-0.11 2.74,0.02c0.82,0.11 1.52,0.91 2.27,1c0.78,0.09 1.79,0 2.73,0c0.93,0 1.6,0.06 2.53,0.43c0.7,0.27 1.73,0.57 2.62,0.57c0.74,0 1.8,0 2.66,0c0.93,0 1.7,0 2.6,0c0.9,0 1.87,-0.04 2.62,0.44c0.74,0.48 1.1,1.22 2.16,1.52c0.88,0.25 1.65,0.39 2.32,0.76c0.82,0.45 1.8,0.28 2.68,0.28c0.88,0 2.7,0.86 2.7,0c0,-0.38 -1.42,0 -2.28,0c-0.79,0 -1.73,0 -2.73,0l-0.76,-0.04l-0.81,-0.39" fill="none" fill-opacity="null" id="svg_43" stroke="#000000" stroke-dasharray="null" stroke-linecap="null" stroke-linejoin="null" stroke-opacity="null" stroke-width="5"/>
 </g>
</svg>